<svg width="80" height="85" viewBox="0 0 80 85" fill="none" xmlns="http://www.w3.org/2000/svg">
<g clip-path="url(#clip0_8_2551)">
<path d="M52.5327 6.16345C52.4394 6.10336 52.3353 6.04679 52.224 5.98669C52.3496 6.06093 52.4753 6.13517 52.6045 6.20588C52.583 6.19174 52.5579 6.1776 52.5363 6.16345H52.5327Z" fill="#0064A9"/>
<path d="M32.5651 5.29369C28.3576 6.58404 21.2278 11.7949 17.1028 17.4831C12.9743 23.1677 10.9495 27.9932 10.2926 30.2805C8.02727 38.2029 11.1183 34.5404 16.6972 29.4639C20.1256 26.3423 23.2561 23.652 26.5949 21.5415C32.9815 17.4831 35.8786 18.2926 44.5306 25.1969C47.9375 27.9119 49.8654 30.4502 52.1702 32.7233C56.3023 36.7853 61.655 43.6966 59.1779 34.3495C58.0901 30.2381 54.8268 23.6485 51.5491 19.5088C63.7264 20.7425 63.2992 15.0509 61.2529 12.3995C59.1671 10.2854 54.6293 7.45724 52.7661 6.3083C42.6745 3.06651 36.6972 3.87254 32.5651 5.29369Z" fill="white"/>
<path d="M52.7912 6.3154C52.7302 6.28005 52.6656 6.24116 52.601 6.20581C52.6548 6.23763 52.7087 6.27298 52.7697 6.30833L52.7912 6.3154Z" fill="#0064A9"/>
<path d="M61.2565 12.3995C63.3064 15.0509 63.73 20.7426 51.5527 19.5088C54.8304 23.6485 58.0937 30.2381 59.1815 34.3496C61.6586 43.6931 56.3059 36.7853 52.1737 32.7234C49.869 30.4503 47.9411 27.912 44.5342 25.1969C35.8786 18.2927 32.9851 17.4831 26.5984 21.5415C23.2597 23.6521 20.1256 26.3423 16.7008 29.4639C11.1219 34.5405 8.03086 38.203 10.2962 30.2806C10.9531 27.9933 12.9779 23.1677 17.1064 17.4831C21.2278 11.795 28.3576 6.58409 32.5686 5.29374C36.7008 3.87612 42.6817 3.06656 52.7697 6.30834C52.7122 6.27299 52.6548 6.23764 52.601 6.20582C52.4753 6.13158 52.3497 6.05734 52.2204 5.98664C39.9138 -1.05196 23.7157 -2.67108 12.5435 9.30266C1.15598 21.492 3.8449 42.1836 18.5783 55.4795C33.2005 68.6729 54.6509 68.8779 65.8122 57.5229C75.3796 47.8116 75.0745 25.8121 61.2565 12.3995Z" fill="#0055A2"/>
<path d="M10.9101 84.4238H8.01292L2.76073 77.4983H4.27212C5.44247 77.4983 6.17483 77.4488 6.46563 77.3534C6.75642 77.2544 6.98259 77.0883 7.14773 76.8479C7.31287 76.6075 7.39544 76.3105 7.39544 75.9499C7.39544 75.5469 7.28415 75.2252 7.06875 74.9777C6.84976 74.7303 6.54461 74.5747 6.1497 74.5076C5.95225 74.4828 5.35631 74.4687 4.36905 74.4687H2.46275V84.4273H0V72.4465H5.16245C6.45845 72.4465 7.40262 72.5526 7.99138 72.7682C8.58015 72.9839 9.05044 73.3657 9.40585 73.9172C9.75767 74.4651 9.93359 75.0944 9.93359 75.805C9.93359 76.7029 9.66792 77.4453 9.1366 78.0286C8.60887 78.6119 7.90881 78.9831 6.85335 79.1351L10.9065 84.4273L10.9101 84.4238Z" fill="#404040"/>
<path d="M12.0732 72.4431H14.6437V78.9444C14.6437 79.9766 14.676 80.6448 14.737 80.9488C14.8447 81.4402 15.1032 81.8326 15.5124 82.1331C15.9217 82.4301 16.4818 82.5785 17.189 82.5785C17.8962 82.5785 18.4527 82.4371 18.8189 82.1579C19.185 81.875 19.404 81.5321 19.4794 81.122C19.5548 80.712 19.5907 80.0332 19.5907 79.0822V72.4431H22.1576V78.7499C22.1576 80.1923 22.0894 81.2069 21.9494 81.8043C21.8129 82.3983 21.558 82.9038 21.1847 83.3103C20.8149 83.7204 20.3159 84.0457 19.6948 84.2896C19.0737 84.53 18.2624 84.6537 17.2608 84.6537C16.0545 84.6537 15.1355 84.5229 14.5108 84.2578C13.8862 83.9926 13.3943 83.6497 13.0317 83.2255C12.6692 82.8048 12.4286 82.3594 12.3137 81.8962C12.1486 81.2104 12.0624 80.1923 12.0624 78.8524V72.4502L12.0732 72.4431Z" fill="#404040"/>
<path d="M24.5593 84.4239V72.4431H33.5954V74.4652H27.0221V77.3995H33.5739V79.4216H27.0221V82.4018H33.8252V84.4239H24.5593Z" fill="#404040"/>
<path d="M35.6956 84.4239V72.4431H38.1906L43.4033 80.4574V72.4431H45.7835V84.4239H43.2131L38.0793 76.5793V84.4239H35.6991H35.6956Z" fill="#404040"/>
<path d="M50.8742 84.4239V74.4652H47.1262V72.4431H57.189V74.4652H53.4447V84.4239H50.8742Z" fill="#404040"/>
<path d="M68.6807 84.4239L72.8917 78.1737L69.0648 72.4431H71.9368L74.3421 76.0207L76.751 72.4431H79.6123L75.7925 78.1772L79.9964 84.4239H77.0598L74.3421 80.3514L71.6281 84.4239H68.6771H68.6807Z" fill="#404040"/>
<path d="M58.564 84.4487V72.4679H67.6V74.49H61.0303V77.4243H67.5821V79.4464H61.0303V82.4266H67.8334V84.4487H58.5676H58.564Z" fill="#404040"/>
</g>
<defs>
<clipPath id="clip0_8_2551">
<rect width="80" height="84" fill="white" transform="translate(0 0.5)"/>
</clipPath>
</defs>
</svg>
