<svg width="80" height="84" viewBox="0 0 80 84" fill="none" xmlns="http://www.w3.org/2000/svg">
<g clip-path="url(#clip0_313_4203)">
<path d="M52.5327 5.66339C52.4393 5.6033 52.3352 5.54673 52.2239 5.48663C52.3496 5.56087 52.4752 5.63511 52.6045 5.70582C52.5829 5.69167 52.5578 5.67753 52.5363 5.66339H52.5327Z" fill="#0064A9"/>
<path d="M32.565 4.79375C28.3575 6.0841 21.2277 11.295 17.1028 16.9831C12.9743 22.6677 10.9495 27.4933 10.2925 29.7806C8.02721 37.703 11.1182 34.0405 16.6971 28.9639C20.1256 25.8424 23.2561 23.1521 26.5948 21.0416C32.9814 16.9831 35.8786 17.7927 44.5305 24.697C47.9375 27.412 49.8653 29.9503 52.1701 32.2234C56.3022 36.2854 61.6549 43.1967 59.1778 33.8496C58.09 29.7382 54.8267 23.1485 51.549 19.0088C63.7264 20.2426 63.2992 14.5509 61.2528 11.8995C59.167 9.78546 54.6293 6.9573 52.766 5.80836C42.6745 2.56657 36.6971 3.3726 32.565 4.79375Z" fill="white"/>
<path d="M52.7912 5.8154C52.7301 5.78005 52.6655 5.74116 52.6009 5.70581C52.6547 5.73763 52.7086 5.77298 52.7696 5.80833L52.7912 5.8154Z" fill="#0064A9"/>
<path d="M61.2564 11.8995C63.3063 14.5509 63.73 20.2426 51.5526 19.0088C54.8303 23.1485 58.0936 29.7381 59.1814 33.8496C61.6585 43.1931 56.3058 36.2853 52.1737 32.2234C49.8689 29.9503 47.9411 27.412 44.5341 24.6969C35.8786 17.7927 32.985 16.9831 26.5984 21.0415C23.2597 23.1521 20.1256 25.8423 16.7007 28.9639C11.1218 34.0405 8.0308 37.703 10.2961 29.7806C10.9531 27.4933 12.9779 22.6677 17.1064 16.9831C21.2277 11.295 28.3575 6.08409 32.5686 4.79374C36.7007 3.37612 42.6817 2.56656 52.7696 5.80834C52.7122 5.77299 52.6547 5.73764 52.6009 5.70582C52.4752 5.63158 52.3496 5.55734 52.2204 5.48664C39.9138 -1.55196 23.7156 -3.17108 12.5435 8.80266C1.15592 20.992 3.84484 41.6836 18.5783 54.9795C33.2004 68.1729 54.6508 68.3779 65.8122 57.0229C75.3796 47.3116 75.0744 25.3121 61.2564 11.8995Z" fill="#0055A2"/>
<path d="M10.91 83.9238H8.01286L2.76066 76.9983H4.27206C5.44241 76.9983 6.17477 76.9488 6.46556 76.8534C6.75636 76.7544 6.98253 76.5883 7.14767 76.3479C7.31281 76.1075 7.39538 75.8105 7.39538 75.4499C7.39538 75.0469 7.28409 74.7252 7.06869 74.4777C6.8497 74.2303 6.54455 74.0747 6.14964 74.0076C5.95219 73.9828 5.35625 73.9687 4.36899 73.9687H2.46269V83.9273H-6.10352e-05V71.9465H5.16239C6.45838 71.9465 7.40256 72.0526 7.99132 72.2682C8.58009 72.4839 9.05038 72.8657 9.40579 73.4172C9.75761 73.9651 9.93352 74.5944 9.93352 75.305C9.93352 76.2029 9.66786 76.9453 9.13654 77.5286C8.60881 78.1119 7.90875 78.4831 6.85329 78.6351L10.9064 83.9273L10.91 83.9238Z" fill="#404040"/>
<path d="M12.0731 71.9431H14.6436V78.4443C14.6436 79.4766 14.6759 80.1447 14.7369 80.4488C14.8446 80.9401 15.1031 81.3326 15.5124 81.633C15.9216 81.93 16.4817 82.0785 17.1889 82.0785C17.8962 82.0785 18.4526 81.9371 18.8188 81.6578C19.185 81.375 19.404 81.0321 19.4794 80.622C19.5547 80.2119 19.5907 79.5331 19.5907 78.5822V71.9431H22.1575V78.2499C22.1575 79.6922 22.0893 80.7068 21.9493 81.3043C21.8129 81.8982 21.558 82.4037 21.1846 82.8103C20.8148 83.2204 20.3158 83.5456 19.6948 83.7895C19.0737 84.0299 18.2623 84.1536 17.2607 84.1536C16.0545 84.1536 15.1354 84.0228 14.5108 83.7577C13.8861 83.4926 13.3943 83.1497 13.0317 82.7254C12.6691 82.3047 12.4286 81.8593 12.3137 81.3962C12.1485 80.7104 12.0624 79.6922 12.0624 78.3524V71.9501L12.0731 71.9431Z" fill="#404040"/>
<path d="M24.5593 83.9239V71.9431H33.5953V73.9652H27.022V76.8994H33.5738V78.9215H27.022V81.9017H33.8251V83.9239H24.5593Z" fill="#404040"/>
<path d="M35.6955 83.9239V71.9431H38.1906L43.4033 79.9574V71.9431H45.7835V83.9239H43.213L38.0793 76.0792V83.9239H35.6991H35.6955Z" fill="#404040"/>
<path d="M50.8741 83.9239V73.9652H47.1262V71.9431H57.189V73.9652H53.4446V83.9239H50.8741Z" fill="#404040"/>
<path d="M68.6806 83.9239L72.8917 77.6736L69.0647 71.9431H71.9367L74.3421 75.5207L76.751 71.9431H79.6122L75.7924 77.6772L79.9963 83.9239H77.0597L74.3421 79.8513L71.628 83.9239H68.677H68.6806Z" fill="#404040"/>
<path d="M58.5639 83.9486V71.9678H67.6V73.9899H61.0302V76.9241H67.582V78.9463H61.0302V81.9264H67.8333V83.9486H58.5675H58.5639Z" fill="#404040"/>
</g>
<defs>
<clipPath id="clip0_313_4203">
<rect width="80" height="84" fill="white"/>
</clipPath>
</defs>
</svg>
